<svg width="16" height="16" viewBox="0 0 16 16" fill="none" xmlns="http://www.w3.org/2000/svg">
<path fill-rule="evenodd" clip-rule="evenodd" d="M1.74 0C1.5013 0 1.27239 0.0948214 1.1036 0.263604C0.934821 0.432387 0.839999 0.661305 0.839999 0.9V4.275C0.839999 4.5137 0.934821 4.74261 1.1036 4.9114C1.27239 5.08018 1.5013 5.175 1.74 5.175H5.115C5.35369 5.175 5.58261 5.08018 5.7514 4.9114C5.92018 4.74261 6.015 4.5137 6.015 4.275C6.015 4.0363 5.92018 3.80739 5.7514 3.6386C5.58261 3.46982 5.35369 3.375 5.115 3.375H3.68165C4.44631 2.669 5.38732 2.17819 6.40863 1.95641C7.54814 1.70897 8.73561 1.80771 9.8186 2.23996C10.9016 2.67221 11.8307 3.41826 12.4867 4.38233C13.1426 5.34634 13.4955 6.48437 13.5 7.65035C13.5001 7.88892 13.5949 8.11769 13.7636 8.2864C13.9324 8.45518 14.1613 8.55 14.4 8.55C14.6387 8.55 14.8676 8.45518 15.0364 8.2864C15.2052 8.11761 15.3 7.88869 15.3 7.65C15.3 6.64539 15.1021 5.65061 14.7177 4.72247C14.3332 3.79433 13.7697 2.951 13.0594 2.24063C12.349 1.53027 11.5057 0.96677 10.5775 0.582322C9.64939 0.197873 8.65418 6.10948e-07 7.64957 6.10948e-07C5.80317 0.0052671 4.02506 0.677969 2.64 1.88736V0.9C2.64 0.661305 2.54518 0.432387 2.3764 0.263604C2.20761 0.0948213 1.97869 0 1.74 0Z" fill="#BAC5D3"/>
<path fill-rule="evenodd" clip-rule="evenodd" d="M0.899999 6.75C0.661304 6.75 0.432386 6.84482 0.263604 7.0136C0.0948208 7.18239 0 7.41171 0 7.65041C0.00404429 9.1443 0.445399 10.6043 1.2696 11.8503C2.09379 13.0962 3.26476 14.0736 4.638 14.6618C6.01123 15.25 7.52663 15.4232 8.99718 15.1601C10.3554 14.9171 11.6205 14.3118 12.66 13.4109V14.4C12.66 14.6387 12.7548 14.8676 12.9236 15.0364C13.0924 15.2052 13.3213 15.3 13.56 15.3C13.7987 15.3 14.0276 15.2052 14.1964 15.0364C14.3652 14.8676 14.46 14.6387 14.46 14.4L14.46 11.025L14.46 11.0236C14.4578 10.791 14.3656 10.5684 14.2029 10.4023C14.0401 10.2362 13.8194 10.1395 13.587 10.1326L13.5825 10.2825V10.1325H10.185C9.9463 10.1325 9.71739 10.2273 9.5486 10.3961C9.37982 10.5649 9.285 10.7938 9.285 11.0325C9.285 11.2712 9.37982 11.5001 9.5486 11.6689C9.71739 11.8377 9.9463 11.9325 10.185 11.9325H11.6184C10.8532 12.6389 9.91157 13.1299 8.88959 13.3514C7.74939 13.5987 6.56132 13.4993 5.47802 13.0662C4.39473 12.633 3.46569 11.8858 2.81029 10.9206C2.15492 9.95547 1.80309 8.81642 1.8 7.6498C1.79995 7.41118 1.70513 7.18234 1.5364 7.0136C1.36761 6.84482 1.13869 6.75 0.899999 6.75Z" fill="#BAC5D3"/>
</svg>
