<svg width="20" height="20" viewBox="0 0 20 20" fill="none" xmlns="http://www.w3.org/2000/svg">
<path d="M3 7C3 5.89543 3.89543 5 5 5H15C16.1046 5 17 5.89543 17 7V17C17 18.1046 16.1046 19 15 19H5C3.89543 19 3 18.1046 3 17V7Z" stroke="#11D799" stroke-width="2"/>
<path d="M6 4C6 4.55228 6.44772 5 7 5C7.55228 5 8 4.55228 8 4H6ZM12 4C12 4.55228 12.4477 5 13 5C13.5523 5 14 4.55228 14 4H12ZM8 4V3H6V4H8ZM9 2H11V0H9V2ZM12 3V4H14V3H12ZM11 2C11.5523 2 12 2.44772 12 3H14C14 1.34315 12.6569 0 11 0V2ZM8 3C8 2.44772 8.44772 2 9 2V0C7.34315 0 6 1.34315 6 3H8Z" fill="#11D799"/>
<path d="M10 11L10 9" stroke="#11D799" stroke-width="2" stroke-linecap="round" stroke-linejoin="round"/>
<circle cx="10" cy="14" r="1" fill="#11D799"/>
</svg>
