<svg width="20" height="20" viewBox="0 0 20 20" fill="none" xmlns="http://www.w3.org/2000/svg">
<path d="M15 11.542V11.5C15 10.6716 15.6716 10 16.5 10V10C17.3284 10 18 10.6716 18 11.5V12.6667C18 13.403 17.403 14 16.6667 14V14C16.2985 14 16 14.2985 16 14.6667V15" stroke="#FF5358" stroke-width="2" stroke-linecap="round"/>
<circle cx="16" cy="18" r="1" fill="#FF5358"/>
<path d="M17 6V5C17 3.89543 16.1046 3 15 3H3C1.89543 3 1 3.89543 1 5V14C1 15.1046 1.89543 16 3 16L12 16" stroke="#FF5358" stroke-width="2" stroke-linecap="round" stroke-linejoin="round"/>
<path d="M5 11C6.06667 11 8.36 11 9 11" stroke="#FF5358" stroke-width="2" stroke-linecap="round" stroke-linejoin="round"/>
<path d="M5 7C6.86667 7 10.88 7 12 7" stroke="#FF5358" stroke-width="2" stroke-linecap="round" stroke-linejoin="round"/>
</svg>
